<svg xmlns="http://www.w3.org/2000/svg" viewBox="0 0 839.26 260.38"><g id="fb207d0e-89f5-4dfc-930b-5c2da7145365" data-name="Layer 2"><path d="M0,48.46a3.57,3.57,0,0,1,.29,2.06q0,57.87.07,115.74c0,3.91,0,7.83-.07,11.74A4.51,4.51,0,0,1,0,180.27Z" style="fill:#fff;fill-rule:evenodd"/><path d="M230.37,35.45c0-2.7,0-5.4,0-8.09-.14-5.62-1.29-11-4.49-15.69C220.51,3.75,212.69.38,203.47.33c-23.89-.11-47.78,0-71.68,0C102.64.37,73.48.29,44.32.29c-6.22,0-12.45-.63-18.67,0C14.31,1.35,6.56,7.33,2.14,17.77a53.63,53.63,0,0,0-2.14,8V48.46a3.37,3.37,0,0,1,.18,1.88q0,64,0,128A3.37,3.37,0,0,1,0,180.27v23.51c.12.49.29,1,.37,1.47C1.43,212,4,218.05,9.1,222.8c5.9,5.46,13.11,7.5,20.87,7.52,18.49.05,37-.17,55.48-.23,5.71,0,11.43.16,17.14.17,12.27,0,24.53.07,36.8,0,11.24-.07,22.48.32,33.71-.27,2.44-.13,2.54-.2,1.91-2.56-1.1-4.15-2.22-8.3-3.32-12.45-.7-2.62-1.38-5.24-2.19-8.31.77.55,1.15.77,1.47,1.06l15.2,13.63,42.27,38c.38.33.72.9,1.27.75s.41-.86.46-1.32c.11-1.08.19-2.17.2-3.26q.06-45.19.09-90.37Q230.46,100.29,230.37,35.45Zm-31.18,92.31c-3.48,12.46-6.41,25.07-9.57,37.62a41,41,0,0,1-35.37,30.4c-6.69.67-13-.79-19.34-2.4-23.85-6-47.75-11.87-71.55-18.09-17.72-4.64-29.83-20.85-29.83-39.48-.24-5.87,1.76-11.69,3.23-17.58C42.32,95.92,48,73.63,53.57,51.32A41,41,0,0,1,87.34,21c6.83-.94,13.38.18,20,1.91,12.71,3.33,25.46,6.47,38.21,9.62a3.73,3.73,0,0,1,2.5,1.86c16.44,27.1,32.79,54.26,49.44,81.23A13.78,13.78,0,0,1,199.19,127.76Z" style="fill:#fff;fill-rule:evenodd"/><path d="M95.45,32.18c4.79-.19,9.79,1.62,14.88,2.86,8.59,2.08,17.13,4.35,25.71,6.43,1.68.41,1.92,1.08,1.52,2.62-2.36,9.18-4.65,18.37-6.93,27.56-4.88,19.62,7.32,40.63,27.88,45.79,9.26,2.33,18.51,4.69,27.79,6.93,1.71.42,2.07,1.07,1.64,2.73-2.84,11.05-5.55,22.12-8.37,33.17a32.18,32.18,0,0,1-32.16,24.22c-5.43-.16-10.56-2-15.77-3.26-20.63-5.16-41.23-10.42-61.86-15.56-17.33-4.31-28-21.07-23.87-38.36q8.64-35.86,18-71.55C67.61,41.5,80.24,32.15,95.45,32.18Z" style="fill:#fff;fill-rule:evenodd"/><path d="M296.43,103.81a32,32,0,0,1-13.1-9.94,23.34,23.34,0,0,1-4.83-13.14,2.87,2.87,0,0,1,.89-2.1,3,3,0,0,1,2.23-.89h3c1.78,0,2.88,1,3.27,3q1,7.17,8.19,12.54t20.54,5.38q14.14,0,21.06-5.15t6.92-14.42a13.29,13.29,0,0,0-3.34-9.33,28.42,28.42,0,0,0-9.75-6.43q-6.4-2.76-19.35-6.94a106,106,0,0,1-17.94-7.32,24.73,24.73,0,0,1-9.6-8.82Q281.46,35,281.47,27a24.16,24.16,0,0,1,4.1-13.74A27.29,27.29,0,0,1,297.4,3.57,44.42,44.42,0,0,1,315.86.06q11,0,18.9,4a30,30,0,0,1,11.91,10A24,24,0,0,1,351,26.2a3,3,0,0,1-.82,2.09,3,3,0,0,1-2.31.9h-3a3.79,3.79,0,0,1-2.08-.67,2.87,2.87,0,0,1-1.19-2.32q-.9-7.47-8-12.32T315.86,9q-11.48,0-18.24,4.48T290.85,27a14.94,14.94,0,0,0,3,9.63,24.28,24.28,0,0,0,9.16,6.58,185.3,185.3,0,0,0,18,6.64,124.67,124.67,0,0,1,19.05,7.47,27.92,27.92,0,0,1,10.34,8.67c2.33,3.38,3.5,7.77,3.5,13.14q0,13.45-10,21t-27.39,7.54Q305,107.61,296.43,103.81Z" style="fill:#fff"/><path d="M397.87,105.22a3.24,3.24,0,0,1-.89-2.39V10.52H367.51a3.18,3.18,0,0,1-2.38-.9,3.22,3.22,0,0,1-.9-2.39V5a3.47,3.47,0,0,1,.9-2.46,3.05,3.05,0,0,1,2.38-1h68.17a3.4,3.4,0,0,1,2.53.9A3.44,3.44,0,0,1,439.1,5V7.23a3.11,3.11,0,0,1-1,2.39,3.49,3.49,0,0,1-2.46.9H406.36v92.31a3.1,3.1,0,0,1-1,2.39,3.49,3.49,0,0,1-2.46.9h-2.68A3.21,3.21,0,0,1,397.87,105.22Z" style="fill:#fff"/><path d="M458,105.22a3.2,3.2,0,0,1-.9-2.39v-98a3.24,3.24,0,0,1,.9-2.39,3.2,3.2,0,0,1,2.38-.9h2.83a3.21,3.21,0,0,1,2.38.9,3.27,3.27,0,0,1,.89,2.39v98a3.08,3.08,0,0,1-3.27,3.29h-2.83A3.2,3.2,0,0,1,458,105.22Z" style="fill:#fff"/><path d="M500.73,96.64q-9.69-11-10.42-29.51-.15-4-.15-13.14,0-9.27.15-13.45Q491,22,500.73,11t29-11q13.25,0,22,4.86a32.78,32.78,0,0,1,13,12.24,34.17,34.17,0,0,1,4.68,15.17v.3a2.4,2.4,0,0,1-.89,1.94,3.34,3.34,0,0,1-2.23.74h-3c-1.78,0-2.88-1-3.27-3.13q-2.83-12.7-10.27-17.93T529.75,9q-14,0-21.73,7.92t-8.34,24.35q-.15,4-.14,12.4t.14,12.7q.6,16.42,8.34,24.35t21.73,7.91q12.64,0,20.1-5.23T560.12,75.5c.39-2.09,1.49-3.14,3.27-3.14h3a3.51,3.51,0,0,1,2.31.82,2.34,2.34,0,0,1,.81,2.17,34.13,34.13,0,0,1-4.68,15.16,32.73,32.73,0,0,1-13,12.25q-8.79,4.86-22,4.85Q510.4,107.61,500.73,96.64Z" style="fill:#fff"/><path d="M592.27,105.22a3.2,3.2,0,0,1-.9-2.39V5a3.47,3.47,0,0,1,.9-2.46,3.07,3.07,0,0,1,2.38-1h2.68a3.42,3.42,0,0,1,2.53.9A3.48,3.48,0,0,1,600.75,5V43.83l45.1-40a18.46,18.46,0,0,1,2.46-1.56,6.74,6.74,0,0,1,3.2-.68h2.38a2.83,2.83,0,0,1,2.08.9,2.87,2.87,0,0,1,.9,2.09,2.6,2.6,0,0,1-.75,1.94L605.66,51.6,659.25,101a2.9,2.9,0,0,1,.89,2.09,3.06,3.06,0,0,1-3,3h-2.54a6.77,6.77,0,0,1-3.2-.67,18.44,18.44,0,0,1-2.45-1.57L600.75,59.66v43.17a3.07,3.07,0,0,1-1,2.39,3.44,3.44,0,0,1-2.45.9h-2.68A3.2,3.2,0,0,1,592.27,105.22Z" style="fill:#fff"/><path d="M677.85,105.22a3.24,3.24,0,0,1-.89-2.39V5a3.51,3.51,0,0,1,.89-2.46,3.09,3.09,0,0,1,2.39-1h58a3.42,3.42,0,0,1,2.53.9A3.48,3.48,0,0,1,741.71,5V7.23a3.08,3.08,0,0,1-1,2.39,3.44,3.44,0,0,1-2.45.9H686.34V48.61H735a3.13,3.13,0,0,1,3.43,3.44v2.24a3.13,3.13,0,0,1-1,2.39,3.52,3.52,0,0,1-2.46.89H686.34V97.16h53.14a3.1,3.1,0,0,1,3.42,3.43v2.24a3.07,3.07,0,0,1-1,2.39,3.44,3.44,0,0,1-2.45.9H680.24A3.22,3.22,0,0,1,677.85,105.22Z" style="fill:#fff"/><path d="M766,105.22a3.24,3.24,0,0,1-.89-2.39V5A3.51,3.51,0,0,1,766,2.53a3.08,3.08,0,0,1,2.38-1H803q16.07,0,25.15,7.62t9.08,22.56q0,11.81-5.8,19.05T814.8,60.56l24,40.93a3.73,3.73,0,0,1,.45,1.64,3.08,3.08,0,0,1-3,3h-1.79a5,5,0,0,1-3.35-1,12,12,0,0,1-2.3-3.06L805.12,61.9H774.46v40.93a3.1,3.1,0,0,1-1,2.39,3.49,3.49,0,0,1-2.46.9h-2.68A3.21,3.21,0,0,1,766,105.22Zm36.32-52.28q13,0,19.28-5.3t6.32-15.91q0-10.6-6.32-15.91t-19.28-5.3H774.46V52.94Z" style="fill:#fff"/><path d="M295.43,217.72c5.65,8.2,16.4,12.39,26.07,12.39,8.75,0,16.4-3.1,17.68-9.84,1.46-8-9.84-11.49-20.24-13-20.23-3.28-38.46-19.5-33.91-43.93,4.93-26.44,28.26-35.74,52-35.74,15.68,0,30.27,4.38,41.39,20.6l-23.7,16.41c-5.47-6.2-14-9.11-21.52-9.3-8.2-.18-15.13,2.92-15.86,9.49-.91,7.47,5.66,10.75,15.5,12.94,22.42,4.19,44.3,12.76,38.29,44.85-4.74,25.16-26.62,37.74-54.52,37.74-15.49,0-34.64-7.84-44.48-23.34Z" style="fill:#fff"/><path d="M418.12,215c-1.46,10.39,7.11,15.5,16.41,15.5,9.66,0,19.14-5.11,20.6-15.5l12-85.5h33l-12,85.5c-4.2,30.26-32.27,45.4-58,45.4-25.89,0-49.22-15.14-45-45.4l12-85.5h33Z" style="fill:#fff"/><path d="M545.92,217.53h-5.84l-5.65,41h-33l18.05-129.07h51.6c26.61,0,45.57,14.22,41.93,44.48-3.28,23.88-13.49,31.9-31.18,40.29l31,44.3H572.17Zm17.32-28.07c10,0,15.86-7.48,16.77-15,.91-7.84-2.92-14.59-12.58-14.59H548.29l-4.2,29.54Z" style="fill:#fff"/><path d="M695.78,167.76c-2-7.65-8.94-11.12-16.23-11.12-9.11,0-18.78,5.47-20,14.77l-6.2,44.3c-1.28,9.85,7.11,14.77,16.77,14.77,9.48,0,19.69-4.92,21-14.77l.73-5.47h-20.6l3.64-26.62h52l-4.37,32.09c-4.2,29.72-31.36,44.67-57.25,44.67-25.52,0-48.68-14.95-44.48-44.67l6.19-44.3c4.2-30.08,31.54-43.76,57.07-43.76,16.77,0,35,6.93,41,27.53Z" style="fill:#fff"/><path d="M775.26,179.43h52.33l-4,29H771.25l-2.73,19.32H825.4l-4.19,30.81H731.33l18-129.07h89.88l-4.38,30.81H778Z" style="fill:#fff"/></g></svg>