<?xml version="1.0" encoding="utf-8"?>
<!-- Generator: Adobe Illustrator 16.0.0, SVG Export Plug-In . SVG Version: 6.00 Build 0)  -->
<!DOCTYPE svg PUBLIC "-//W3C//DTD SVG 1.1//EN" "http://www.w3.org/Graphics/SVG/1.1/DTD/svg11.dtd">
<svg version="1.1" id="Layer_1" xmlns="http://www.w3.org/2000/svg" xmlns:xlink="http://www.w3.org/1999/xlink" x="0px" y="0px"
	 width="1005.184px" height="262.659px" viewBox="0 0 1005.184 262.659" enable-background="new 0 0 1005.184 262.659"
	 xml:space="preserve">
<g>
	<path fill-rule="evenodd" clip-rule="evenodd" fill="#FFFFFF" d="M0,51.021c0.406,0.644,0.29,1.368,0.291,2.063
		c0.029,38.578,0.053,77.156,0.07,115.734c0.002,3.916-0.037,7.831-0.069,11.746c-0.006,0.763,0.103,1.548-0.292,2.263
		C0,138.893,0,94.957,0,51.021z"/>
	<path fill-rule="evenodd" clip-rule="evenodd" fill="#FFFFFF" d="M321.77,8.963c7.345-0.115,13.917,1.633,19.429,6.421
		c3.516,3.054,5.643,6.933,6.345,11.563c0.229,1.508-0.074,2.708-1.777,3.09c-2.522,0.566-4.64-0.074-4.934-1.716
		c-1.505-8.395-7.564-11.469-14.992-12.592c-4.639-0.702-9.335-0.403-13.844,1.309c-4.643,1.764-7.684,4.829-8.25,9.907
		c-0.59,5.293,1.612,9.245,6.164,11.868c5.037,2.902,10.597,4.532,16.067,6.354c5.051,1.683,10.034,3.484,14.792,5.932
		c12.808,6.589,10.918,24.639,1.283,30.963c-7.076,4.644-14.911,5.514-23.056,4.984c-6.76-0.439-12.994-2.407-18.154-6.978
		c-3.476-3.078-5.712-6.887-6.083-11.635c-0.119-1.523,0.276-2.659,1.974-2.987c2.467-0.477,4.225,0.126,4.627,1.855
		c1.841,7.903,7.423,11.494,14.841,12.855c5.365,0.984,10.766,0.792,16.024-0.672c5.573-1.552,9.579-4.744,10.523-10.912
		c0.745-4.862-0.961-8.534-4.986-11.214c-3.946-2.627-8.446-3.993-12.853-5.554c-4.708-1.668-9.534-3.009-14.128-5
		c-1.235-0.535-2.454-1.106-3.668-1.687c-7.056-3.369-10.516-9.025-10.322-16.783c0.195-7.828,4.194-13.269,11.135-16.635
		C312.348,9.557,317.082,8.879,321.77,8.963z"/>
	<path fill-rule="evenodd" clip-rule="evenodd" fill="#FFFFFF" d="M741.82,8.964c7.373-0.117,13.945,1.629,19.459,6.415
		c3.516,3.053,5.646,6.93,6.35,11.56c0.229,1.506-0.065,2.71-1.768,3.096c-2.629,0.597-4.786-0.109-4.978-1.892
		c-0.802-7.458-8.317-11.912-15.706-12.532c-4.426-0.372-8.833-0.201-13.088,1.421c-4.639,1.769-7.687,4.826-8.256,9.904
		c-0.593,5.292,1.604,9.248,6.156,11.872c5.036,2.904,10.595,4.534,16.066,6.356c5.051,1.683,10.034,3.485,14.792,5.93
		c12.814,6.586,10.928,24.636,1.298,30.962c-7.075,4.647-14.909,5.519-23.055,4.99c-6.76-0.438-12.994-2.404-18.156-6.973
		c-3.477-3.077-5.715-6.885-6.089-11.632c-0.119-1.519,0.264-2.663,1.965-2.994c2.462-0.479,4.233,0.122,4.634,1.846
		c1.837,7.903,7.416,11.498,14.834,12.861c5.366,0.986,10.766,0.792,16.024-0.669c5.574-1.549,9.583-4.737,10.529-10.905
		c0.747-4.861-0.952-8.535-4.977-11.217c-3.945-2.629-8.445-3.995-12.851-5.557c-4.708-1.669-9.534-3.009-14.128-5
		c-1.235-0.535-2.455-1.105-3.669-1.685c-7.054-3.368-10.522-9.018-10.33-16.779c0.194-7.828,4.188-13.272,11.128-16.64
		C732.425,9.559,737.158,8.877,741.82,8.964z"/>
	<path fill-rule="evenodd" clip-rule="evenodd" fill="#FFFFFF" d="M586.098,48.058c-0.001-11.428-0.004-22.856,0-34.285
		c0.002-3.392,0.293-3.697,3.575-3.698c13.354-0.005,26.708-0.006,40.063,0.002c3.2,0.002,4.448,1.822,3.377,4.907
		c-0.401,1.154-1.354,1.439-2.463,1.438c-2.375-0.003-4.75,0.01-7.126,0.01c-9.438,0.002-18.876,0.029-28.313-0.023
		c-1.659-0.01-2.423,0.372-2.402,2.24c0.087,7.768,0.085,15.538,0.001,23.305c-0.02,1.847,0.705,2.259,2.384,2.251
		c10.722-0.052,21.444-0.034,32.167-0.017c2.765,0.004,3.519,0.701,3.544,3.102c0.03,2.762-0.579,3.425-3.36,3.431
		c-10.658,0.02-21.316,0.008-31.974,0.015c-2.716,0.001-2.724,0.012-2.726,2.816c-0.004,7.769-0.004,15.537,0,23.306
		c0.001,2.673,0.012,2.68,2.611,2.681c11.686,0.003,23.372,0.076,35.056-0.04c3.902-0.039,3.926,2.059,3.357,5.151
		c-0.241,1.312-1.598,1.453-2.828,1.449c-6.549-0.018-13.098-0.007-19.646-0.007c-7.384,0-14.767,0.005-22.15-0.003
		c-2.652-0.003-3.136-0.475-3.139-3.168C586.092,71.3,586.1,59.679,586.098,48.058z"/>
	<path fill-rule="evenodd" clip-rule="evenodd" fill="#FFFFFF" d="M456.327,47.248c-0.014,5.761-0.073,10.765,0.738,15.734
		c1.789,10.956,8.809,17.209,19.938,17.69c3.222,0.14,6.408-0.183,9.542-0.94c7.825-1.89,11.896-7.272,13.749-14.75
		c0.818-3.305,1.353-3.658,4.618-3.445c2.063,0.135,2.708,0.905,2.457,2.993c-1.211,10.062-6.626,16.986-16.024,20.514
		c-8.051,3.023-16.372,3.074-24.532,0.373c-9.607-3.18-14.104-10.718-16.29-20.047c-0.737-3.146-0.936-6.358-0.975-9.551
		c-0.093-7.63-0.557-15.297,0.625-22.875c1.524-9.772,5.698-17.879,15.422-21.852c6.154-2.514,12.635-2.531,19.144-1.726
		c6.335,0.784,11.827,3.349,16.259,7.947c3.878,4.024,5.848,8.98,6.418,14.5c0.188,1.817-0.548,2.58-2.397,2.709
		c-3.464,0.242-3.872-0.058-4.752-3.501c-2.581-10.091-8.876-15.1-19.314-15.476c-3.939-0.142-7.839-0.076-11.578,1.333
		c-7.375,2.779-10.943,8.532-12.262,15.959C456.22,37.855,456.278,42.932,456.327,47.248z"/>
	<path fill-rule="evenodd" clip-rule="evenodd" fill="#FFFFFF" d="M523.276,48.035c0-11.492-0.004-22.984,0.004-34.477
		c0.002-3.13,2.912-4.759,5.669-3.186c1.075,0.613,1.055,1.689,1.059,2.716c0.018,4.302,0.012,8.603,0.014,12.905
		c0.001,4.109-0.006,8.218,0.01,12.327c0.002,0.556-0.215,1.319,0.375,1.586c0.595,0.269,1.01-0.422,1.419-0.783
		c7.124-6.28,14.232-12.579,21.347-18.869c3.221-2.848,6.472-5.664,9.667-8.54c1.609-1.448,3.482-1.749,5.538-1.649
		c1.105,0.054,2.04,0.256,2.464,1.419c0.427,1.171-0.179,1.964-0.985,2.687c-2.15,1.927-4.292,3.864-6.449,5.784
		c-9.49,8.449-18.953,16.928-28.506,25.304c-1.516,1.329-0.504,1.836,0.338,2.61c11.721,10.767,23.441,21.534,35.157,32.305
		c0.757,0.695,1.492,1.413,2.217,2.14c0.617,0.618,1.069,1.329,0.695,2.239c-0.401,0.978-1.153,1.445-2.232,1.543
		c-2.431,0.221-4.533-0.38-6.366-2.063c-9.172-8.418-18.373-16.806-27.562-25.205c-1.753-1.602-3.488-3.223-5.256-4.808
		c-0.444-0.399-0.814-1.213-1.542-0.85c-0.581,0.29-0.318,1.05-0.319,1.6c-0.015,8.86-0.01,17.72-0.013,26.58
		c0,0.771-0.004,1.542-0.035,2.311c-0.061,1.551-0.929,2.313-2.432,2.418c-0.32,0.022-0.642,0.011-0.963,0.012
		c-2.813,0.007-3.294-0.437-3.307-3.195c-0.02-4.237-0.008-8.475-0.008-12.712C523.275,62.801,523.276,55.418,523.276,48.035z"/>
	<path fill-rule="evenodd" clip-rule="evenodd" fill="#FFFFFF" d="M813.482,48.072c0.001-11.495-0.003-22.99,0.004-34.484
		c0.002-3.18,0.34-3.511,3.567-3.513c13.229-0.005,26.457-0.006,39.686,0.002c3.155,0.002,4.492,1.984,3.348,4.945
		c-0.298,0.772-0.887,1.266-1.735,1.333c-0.767,0.06-1.539,0.076-2.309,0.076c-11.109,0.005-22.219,0.045-33.328-0.034
		c-1.941-0.014-2.547,0.572-2.525,2.52c0.093,8.09,0.035,16.183,0.043,24.273c0.002,2.513,0.019,2.527,2.617,2.529
		c10.467,0.006,20.934,0.046,31.401-0.018c3.749-0.023,4.062,1.24,3.612,4.984c-0.112,0.924-0.877,1.4-1.785,1.489
		c-0.829,0.081-1.667,0.097-2.5,0.097c-10.082,0.007-20.165,0.003-30.246,0.006c-3.098,0.001-3.103,0.005-3.104,3.02
		c-0.003,9.054,0.007,18.109-0.009,27.163c-0.005,3.248-2.489,4.8-5.469,3.442c-0.759-0.346-1.205-0.944-1.228-1.806
		c-0.019-0.706-0.04-1.412-0.041-2.118C813.482,70.676,813.482,59.374,813.482,48.072z"/>
	<path fill-rule="evenodd" clip-rule="evenodd" fill="#FFFFFF" d="M381.449,50.633c-0.001-10.462,0.001-20.925-0.002-31.388
		c-0.001-2.798-0.01-2.807-2.731-2.81c-6.034-0.007-12.067,0.009-18.101-0.012c-2.626-0.009-3.043-0.454-3.055-3.027
		c-0.013-2.729,0.474-3.311,3.012-3.313c16.175-0.015,32.351-0.014,48.526,0c2.579,0.002,2.976,0.456,2.988,3.089
		c0.013,2.771-0.394,3.242-3.035,3.251c-6.098,0.023-12.196,0.004-18.294,0.014c-2.542,0.004-2.558,0.017-2.558,2.596
		c-0.005,21.182-0.001,42.363-0.009,63.546c0,2.909-0.569,3.495-3.265,3.514c-2.927,0.02-3.466-0.496-3.469-3.494
		C381.443,71.943,381.451,61.288,381.449,50.633z"/>
	<path fill-rule="evenodd" clip-rule="evenodd" fill="#FFFFFF" d="M425.385,47.937c0.001-11.49-0.003-22.98,0.008-34.47
		c0-1.132-0.287-2.558,1.01-3.076c1.493-0.596,3.156-0.552,4.704,0.028c0.64,0.239,0.904,0.885,0.94,1.571
		c0.04,0.769,0.081,1.538,0.082,2.308c0.004,22.466,0.004,44.933,0,67.399c0,0.77-0.006,1.542-0.066,2.308
		c-0.1,1.292-0.883,1.944-2.122,2.06c-0.637,0.059-1.283,0.007-1.924,0.028c-1.748,0.056-2.63-0.754-2.622-2.531
		c0.012-2.439-0.009-4.878-0.009-7.317C425.384,66.808,425.384,57.373,425.385,47.937z"/>
	<path fill-rule="evenodd" clip-rule="evenodd" fill="#FFFFFF" d="M230.374,38.009c-0.001-2.698,0.051-5.397-0.014-8.093
		c-0.135-5.611-1.287-10.959-4.488-15.688c-5.359-7.917-13.18-11.289-22.402-11.333c-23.891-0.114-47.784,0.042-71.676,0.039
		C102.636,2.929,73.477,2.855,44.318,2.85c-6.222-0.001-12.45-0.629-18.664-0.032C14.313,3.907,6.557,9.892,2.143,20.332
		C1.063,22.886,0.665,25.619,0,28.283c0,7.58,0,15.159,0,22.738c0.362,0.597,0.184,1.256,0.184,1.882
		c0.009,42.681,0.009,85.362,0,128.043c0,0.626,0.179,1.285-0.184,1.881c0,7.837,0,15.673,0,23.51
		c0.125,0.49,0.289,0.974,0.367,1.471c1.06,6.774,3.602,12.798,8.737,17.55c5.898,5.458,13.104,7.502,20.864,7.523
		c18.494,0.051,36.987-0.166,55.481-0.227c5.713-0.019,11.426,0.158,17.139,0.17c12.268,0.029,24.536,0.064,36.803-0.007
		c11.235-0.065,22.475,0.319,33.706-0.266c2.448-0.127,2.543-0.2,1.915-2.563c-1.104-4.148-2.218-8.295-3.321-12.444
		c-0.698-2.623-1.384-5.248-2.191-8.314c0.766,0.548,1.148,0.771,1.472,1.061c5.07,4.539,10.133,9.085,15.196,13.632
		c14.091,12.653,28.181,25.308,42.276,37.958c0.372,0.334,0.716,0.898,1.263,0.753c0.636-0.169,0.413-0.86,0.462-1.324
		c0.114-1.083,0.196-2.174,0.198-3.262c0.042-30.123,0.101-60.245,0.097-90.367C230.458,124.458,230.406,81.233,230.374,38.009z
		 M199.188,130.319c-3.478,12.461-6.413,25.074-9.572,37.624c-4.132,16.414-18.591,28.702-35.366,30.394
		c-6.691,0.674-12.992-0.789-19.344-2.395c-23.848-6.03-47.746-11.872-71.543-18.095C45.644,173.213,33.527,157,33.53,138.371
		c-0.24-5.874,1.76-11.686,3.228-17.577c5.563-22.314,11.237-44.6,16.81-66.912c3.949-15.809,17.619-28.062,33.776-30.286
		c6.827-0.94,13.372,0.187,19.946,1.91c12.706,3.33,25.46,6.474,38.212,9.623c1.197,0.295,1.905,0.892,2.495,1.865
		c16.441,27.099,32.794,54.253,49.442,81.225C199.953,122.291,200.462,125.754,199.188,130.319z"/>
	<path fill-rule="evenodd" clip-rule="evenodd" fill="#FFFFFF" d="M703.383,81.328c-5.194-8.851-10.371-17.71-15.619-26.528
		c-0.852-1.432-0.736-1.938,0.962-2.423c4.361-1.249,8.142-3.539,10.739-7.359c4.109-6.044,4.219-12.76,2.888-19.614
		c-0.715-3.683-2.494-6.867-5.312-9.386c-4.302-3.847-9.517-5.641-15.142-5.793c-9.303-0.252-18.616-0.128-27.925-0.147
		c-3.184-0.006-3.511,0.333-3.512,3.565c-0.007,11.428-0.002,22.856-0.003,34.285c0,3.403-0.001,6.806,0,10.208
		c0.001,8.282,0.004,16.565,0.002,24.847c0,1.178-0.027,2.368,1.302,2.942c3.034,1.312,5.429-0.22,5.435-3.505
		c0.016-8.796,0.04-17.593-0.019-26.388c-0.011-1.657,0.499-2.264,2.203-2.243c6.098,0.078,12.199,0.058,18.298,0.008
		c1.297-0.011,2.096,0.382,2.776,1.549c4.976,8.532,10.018,17.025,15.055,25.521c0.815,1.375,1.484,2.852,2.603,4.028
		c1.273,1.339,4.255,1.736,5.487,0.689C705.339,84.104,704.188,82.701,703.383,81.328z M659.047,47.467
		c-1.475,0.028-1.869-0.638-1.855-1.983c0.045-4.495,0.017-8.991,0.017-13.487s0.05-8.992-0.027-13.486
		c-0.028-1.615,0.581-2.129,2.146-2.097c7.38,0.153,14.774-0.32,22.141,0.333c5.375,0.477,10.236,2.11,13.026,7.254
		c5.69,10.492-0.688,22.239-12.534,23.152C674.329,47.742,666.684,47.322,659.047,47.467z"/>
	<path fill-rule="evenodd" clip-rule="evenodd" fill="#FFFFFF" d="M1001.053,83.023c-0.227-0.593-0.584-1.139-0.909-1.69
		c-5.229-8.904-10.465-17.803-15.688-26.71c-0.469-0.798-1.206-1.527,0.469-2.084c10.447-3.476,14.999-9.936,14.901-20.838
		c-0.068-7.667-2.438-14.123-9.439-18.157c-3.678-2.119-7.696-3.283-11.915-3.348c-9.243-0.142-18.489-0.101-27.734-0.119
		c-3.186-0.006-3.515,0.335-3.518,3.56c-0.005,11.493-0.001,22.985-0.002,34.478c0,8.989-0.001,17.978,0.001,26.966
		c0,2.825,0.019,5.65,0.006,8.475c-0.005,1.13,0.322,2.039,1.472,2.431c3.277,1.115,5.258-0.292,5.262-3.753
		c0.011-8.732,0.038-17.464-0.021-26.195c-0.011-1.65,0.487-2.27,2.197-2.248c6.162,0.079,12.328,0.059,18.49,0.008
		c1.266-0.011,1.968,0.478,2.582,1.547c2.396,4.17,4.879,8.29,7.328,12.43c3.169,5.353,6.306,10.725,9.52,16.051
		c1.271,2.104,3.211,2.801,5.455,2.198C1000.863,85.659,1001.561,84.36,1001.053,83.023z M955.794,47.466
		c-1.486,0.028-1.857-0.659-1.844-1.994c0.044-4.495,0.017-8.991,0.016-13.487c-0.002-4.431,0.049-8.863-0.028-13.293
		c-0.027-1.607,0.402-2.326,2.158-2.285c7.38,0.172,14.774-0.313,22.141,0.341c5.004,0.445,9.641,1.858,12.521,6.441
		c6.519,10.366,0.126,23.033-12.052,23.965C971.075,47.739,963.431,47.321,955.794,47.466z"/>
	<path fill-rule="evenodd" clip-rule="evenodd" fill="#FFFFFF" d="M928.654,31.199c-1.426-9.721-6.751-16.934-16.303-20.457
		c-4.409-1.625-8.997-1.85-13.651-1.758c-12.843,0.25-22.521,8.076-25.42,20.523c-1.432,6.146-1.108,12.372-1.229,18.282
		c0.083,7.225-0.273,14.178,1.654,20.954c2.013,7.077,5.883,12.67,12.784,15.722c6.084,2.69,12.48,3.076,19.047,2.471
		c12.328-1.134,20.588-8.091,22.833-20.275C930.538,54.906,930.384,42.977,928.654,31.199z M922.24,61.396
		c-1.344,13.045-11.655,20.963-24.658,19.038c-10.496-1.554-16.695-7.873-18.097-18.44c-0.617-4.654-0.647-9.335-0.697-14.711
		c0.18-4.49-0.095-9.707,1.027-14.824c2.463-11.232,10.144-17.263,21.579-16.98c11.753,0.291,19.628,7.502,20.844,19.23
		C923.16,43.597,923.155,52.507,922.24,61.396z"/>
	<path fill-rule="evenodd" clip-rule="evenodd" fill="#FFFFFF" d="M95.447,34.743c4.795-0.188,9.794,1.617,14.884,2.853
		c8.584,2.085,17.124,4.355,25.708,6.437c1.677,0.406,1.919,1.075,1.521,2.622c-2.358,9.174-4.645,18.367-6.932,27.56
		c-4.881,19.62,7.323,40.628,27.887,45.788c9.259,2.323,18.509,4.686,27.787,6.93c1.709,0.414,2.064,1.071,1.638,2.73
		c-2.835,11.046-5.554,22.121-8.372,33.172c-3.726,14.609-17.072,24.665-32.159,24.214c-5.432-0.162-10.562-1.959-15.77-3.261
		c-20.629-5.153-41.231-10.415-61.863-15.553c-17.324-4.314-28.036-21.079-23.87-38.369c5.761-23.906,11.801-47.747,17.995-71.544
		C67.614,44.059,80.241,34.709,95.447,34.743z"/>
</g>
<path fill="#FFFFFF" d="M337.971,112.96h-48.292v54.256l32.146,28.945v-52.655h17.164c10.909,0,16.291,5.236,16.291,13.672v40.292
	c0,8.436-5.091,14.11-16.291,14.11h-49.455v30.691h48.292c25.891,0.145,50.182-12.801,50.182-42.474v-43.347
	C388.153,126.196,363.862,112.96,337.971,112.96L337.971,112.96z"/>
<path fill="#FFFFFF" d="M591.066,199.798v-44.51c0-16,28.801-19.636,37.528-3.636l26.618-10.764
	c-10.472-22.982-29.527-29.673-45.382-29.673c-25.891,0-51.492,14.982-51.492,44.073v44.51c0,29.382,25.601,44.074,50.91,44.074
	c16.291,0,35.783-8,46.546-28.946l-28.51-13.091C620.303,219.725,591.066,215.361,591.066,199.798L591.066,199.798z"/>
<path fill="#FFFFFF" d="M503.064,161.396c-10.037-2.182-16.728-5.818-17.164-12.072c0.582-14.982,23.709-15.564,37.237-1.164
	l21.382-16.437c-13.382-16.292-28.51-20.656-44.073-20.656c-23.709,0-46.692,13.382-46.692,38.692
	c0,24.582,18.909,37.818,39.709,41.019c10.619,1.455,22.4,5.673,22.11,12.945c-0.874,13.819-29.383,13.092-42.329-2.618
	l-20.655,19.346c12.073,15.563,28.51,23.418,43.928,23.418c23.709,0,50.037-13.673,51.055-38.692
	C549.029,173.615,526.047,165.615,503.064,161.396L503.064,161.396z"/>
<rect x="405.608" y="112.96" fill="#FFFFFF" width="32.583" height="129.166"/>
<path fill="#FFFFFF" d="M955,112.96h-48.292v54.256l32.146,28.945v-52.655h17.163c10.91,0,16.292,5.236,16.292,13.672v40.292
	c0,8.436-5.092,14.11-16.292,14.11h-49.455v30.691H955c25.892,0.145,50.184-12.801,50.184-42.474v-43.347
	C1005.184,126.196,980.892,112.96,955,112.96L955,112.96z"/>
<path fill="#FFFFFF" d="M718.05,111.214c-26.764,0-53.383,14.546-53.383,44.364v44.073c0,29.528,26.765,44.364,53.673,44.364
	c26.765,0,53.383-14.836,53.383-44.364v-44.073C771.724,125.905,744.815,111.214,718.05,111.214z M738.996,199.652
	c0,9.31-10.474,14.11-20.8,14.11c-10.474,0-20.947-4.509-20.947-14.11v-44.073c0-9.454,10.182-14.545,20.364-14.545
	c10.618,0,21.383,4.509,21.383,14.545V199.652z"/>
<path fill="#FFFFFF" d="M863.362,197.907c15.564-4.946,25.309-18.473,25.309-42.328c-0.726-30.255-21.382-42.474-48-42.474h-51.638
	v129.167h33.019v-41.02h5.818l29.964,41.02h40.729L863.362,197.907z M841.252,173.033h-19.2v-29.527h19.2
	C861.761,143.506,861.761,173.033,841.252,173.033z"/>
</svg>
