<svg xmlns="http://www.w3.org/2000/svg" width="1005.184" height="262.659" viewBox="0 0 1005.184 262.659"><g fill-rule="evenodd" clip-rule="evenodd" fill="#FFF"><path d="M0 51.021c.406.644.29 1.368.291 2.063.029 38.578.053 77.156.07 115.734.002 3.916-.037 7.831-.069 11.746-.006.763.103 1.548-.292 2.263V51.021zM321.77 8.963c7.345-.115 13.917 1.633 19.429 6.421 3.516 3.054 5.643 6.933 6.345 11.563.229 1.508-.074 2.708-1.777 3.09-2.522.566-4.64-.074-4.934-1.716-1.505-8.395-7.564-11.469-14.992-12.592-4.639-.702-9.335-.403-13.844 1.309-4.643 1.764-7.684 4.829-8.25 9.907-.59 5.293 1.612 9.245 6.164 11.868 5.037 2.902 10.597 4.532 16.067 6.354 5.051 1.683 10.034 3.484 14.792 5.932 12.808 6.589 10.918 24.639 1.283 30.963-7.076 4.644-14.911 5.514-23.056 4.984-6.76-.439-12.994-2.407-18.154-6.978-3.476-3.078-5.712-6.887-6.083-11.635-.119-1.523.276-2.659 1.974-2.987 2.467-.477 4.225.126 4.627 1.855 1.841 7.903 7.423 11.494 14.841 12.855 5.365.984 10.766.792 16.024-.672 5.573-1.552 9.579-4.744 10.523-10.912.745-4.862-.961-8.534-4.986-11.214-3.946-2.627-8.446-3.993-12.853-5.554-4.708-1.668-9.534-3.009-14.128-5a107.46 107.46 0 0 1-3.668-1.687c-7.056-3.369-10.516-9.025-10.322-16.783.195-7.828 4.194-13.269 11.135-16.635 4.421-2.142 9.155-2.82 13.843-2.736zm420.05.001c7.373-.117 13.945 1.629 19.459 6.415 3.516 3.053 5.646 6.93 6.35 11.56.229 1.506-.065 2.71-1.768 3.096-2.629.597-4.786-.109-4.978-1.892-.802-7.458-8.317-11.912-15.706-12.532-4.426-.372-8.833-.201-13.088 1.421-4.639 1.769-7.687 4.826-8.256 9.904-.593 5.292 1.604 9.248 6.156 11.872 5.036 2.904 10.595 4.534 16.066 6.356 5.051 1.683 10.034 3.485 14.792 5.93 12.814 6.586 10.928 24.636 1.298 30.962-7.075 4.647-14.909 5.519-23.055 4.99-6.76-.438-12.994-2.404-18.156-6.973-3.477-3.077-5.715-6.885-6.089-11.632-.119-1.519.264-2.663 1.965-2.994 2.462-.479 4.233.122 4.634 1.846 1.837 7.903 7.416 11.498 14.834 12.861 5.366.986 10.766.792 16.024-.669 5.574-1.549 9.583-4.737 10.529-10.905.747-4.861-.952-8.535-4.977-11.217-3.945-2.629-8.445-3.995-12.851-5.557-4.708-1.669-9.534-3.009-14.128-5a109.43 109.43 0 0 1-3.669-1.685c-7.054-3.368-10.522-9.018-10.33-16.779.194-7.828 4.188-13.272 11.128-16.64 4.421-2.143 9.154-2.825 13.816-2.738zM586.098 48.058c-.001-11.428-.004-22.856 0-34.285.002-3.392.293-3.697 3.575-3.698 13.354-.005 26.708-.006 40.063.002 3.2.002 4.448 1.822 3.377 4.907-.401 1.154-1.354 1.439-2.463 1.438-2.375-.003-4.75.01-7.126.01-9.438.002-18.876.029-28.313-.023-1.659-.01-2.423.372-2.402 2.24.087 7.768.085 15.538.001 23.305-.02 1.847.705 2.259 2.384 2.251 10.722-.052 21.444-.034 32.167-.017 2.765.004 3.519.701 3.544 3.102.03 2.762-.579 3.425-3.36 3.431-10.658.02-21.316.008-31.974.015-2.716.001-2.724.012-2.726 2.816-.004 7.769-.004 15.537 0 23.306.001 2.673.012 2.68 2.611 2.681 11.686.003 23.372.076 35.056-.04 3.902-.039 3.926 2.059 3.357 5.151-.241 1.312-1.598 1.453-2.828 1.449-6.549-.018-13.098-.007-19.646-.007-7.384 0-14.767.005-22.15-.003-2.652-.003-3.136-.475-3.139-3.168-.014-11.621-.006-23.242-.008-34.863zm-129.771-.81c-.014 5.761-.073 10.765.738 15.734 1.789 10.956 8.809 17.209 19.938 17.69 3.222.14 6.408-.183 9.542-.94 7.825-1.89 11.896-7.272 13.749-14.75.818-3.305 1.353-3.658 4.618-3.445 2.063.135 2.708.905 2.457 2.993-1.211 10.062-6.626 16.986-16.024 20.514-8.051 3.023-16.372 3.074-24.532.373-9.607-3.18-14.104-10.718-16.29-20.047-.737-3.146-.936-6.358-.975-9.551-.093-7.63-.557-15.297.625-22.875 1.524-9.772 5.698-17.879 15.422-21.852 6.154-2.514 12.635-2.531 19.144-1.726 6.335.784 11.827 3.349 16.259 7.947 3.878 4.024 5.848 8.98 6.418 14.5.188 1.817-.548 2.58-2.397 2.709-3.464.242-3.872-.058-4.752-3.501-2.581-10.091-8.876-15.1-19.314-15.476-3.939-.142-7.839-.076-11.578 1.333-7.375 2.779-10.943 8.532-12.262 15.959-.893 5.018-.835 10.095-.786 14.411zm66.949.787c0-11.492-.004-22.984.004-34.477.002-3.13 2.912-4.759 5.669-3.186 1.075.613 1.055 1.689 1.059 2.716.018 4.302.012 8.603.014 12.905.001 4.109-.006 8.218.01 12.327.002.556-.215 1.319.375 1.586.595.269 1.01-.422 1.419-.783 7.124-6.28 14.232-12.579 21.347-18.869 3.221-2.848 6.472-5.664 9.667-8.54 1.609-1.448 3.482-1.749 5.538-1.649 1.105.054 2.04.256 2.464 1.419.427 1.171-.179 1.964-.985 2.687-2.15 1.927-4.292 3.864-6.449 5.784-9.49 8.449-18.953 16.928-28.506 25.304-1.516 1.329-.504 1.836.338 2.61 11.721 10.767 23.441 21.534 35.157 32.305a69.954 69.954 0 0 1 2.217 2.14c.617.618 1.069 1.329.695 2.239-.401.978-1.153 1.445-2.232 1.543-2.431.221-4.533-.38-6.366-2.063-9.172-8.418-18.373-16.806-27.562-25.205-1.753-1.602-3.488-3.223-5.256-4.808-.444-.399-.814-1.213-1.542-.85-.581.29-.318 1.05-.319 1.6-.015 8.86-.01 17.72-.013 26.58 0 .771-.004 1.542-.035 2.311-.061 1.551-.929 2.313-2.432 2.418-.32.022-.642.011-.963.012-2.813.007-3.294-.437-3.307-3.195-.02-4.237-.008-8.475-.008-12.712l.002-22.149zm290.206.037c.001-11.495-.003-22.99.004-34.484.002-3.18.34-3.511 3.567-3.513 13.229-.005 26.457-.006 39.686.002 3.155.002 4.492 1.984 3.348 4.945-.298.772-.887 1.266-1.735 1.333a29.63 29.63 0 0 1-2.309.076c-11.109.005-22.219.045-33.328-.034-1.941-.014-2.547.572-2.525 2.52.093 8.09.035 16.183.043 24.273.002 2.513.019 2.527 2.617 2.529 10.467.006 20.934.046 31.401-.018 3.749-.023 4.062 1.24 3.612 4.984-.112.924-.877 1.4-1.785 1.489-.829.081-1.667.097-2.5.097-10.082.007-20.165.003-30.246.006-3.098.001-3.103.005-3.104 3.02-.003 9.054.007 18.109-.009 27.163-.005 3.248-2.489 4.8-5.469 3.442-.759-.346-1.205-.944-1.228-1.806-.019-.706-.04-1.412-.041-2.118l.001-33.906zm-432.033 2.561c-.001-10.462.001-20.925-.002-31.388-.001-2.798-.01-2.807-2.731-2.81-6.034-.007-12.067.009-18.101-.012-2.626-.009-3.043-.454-3.055-3.027-.013-2.729.474-3.311 3.012-3.313 16.175-.015 32.351-.014 48.526 0 2.579.002 2.976.456 2.988 3.089.013 2.771-.394 3.242-3.035 3.251-6.098.023-12.196.004-18.294.014-2.542.004-2.558.017-2.558 2.596-.005 21.182-.001 42.363-.009 63.546 0 2.909-.569 3.495-3.265 3.514-2.927.02-3.466-.496-3.469-3.494-.013-10.656-.005-21.311-.007-31.966zm43.936-2.696c.001-11.49-.003-22.98.008-34.47 0-1.132-.287-2.558 1.01-3.076 1.493-.596 3.156-.552 4.704.028.64.239.904.885.94 1.571.04.769.081 1.538.082 2.308.004 22.466.004 44.933 0 67.399 0 .77-.006 1.542-.066 2.308-.1 1.292-.883 1.944-2.122 2.06-.637.059-1.283.007-1.924.028-1.748.056-2.63-.754-2.622-2.531.012-2.439-.009-4.878-.009-7.317-.002-9.437-.002-18.872-.001-28.308z"/><path d="M230.374 38.009c-.001-2.698.051-5.397-.014-8.093-.135-5.611-1.287-10.959-4.488-15.688-5.359-7.917-13.18-11.289-22.402-11.333-23.891-.114-47.784.042-71.676.039-29.158-.005-58.317-.079-87.476-.084-6.222-.001-12.45-.629-18.664-.032C14.313 3.907 6.557 9.892 2.143 20.332 1.063 22.886.665 25.619 0 28.283v22.738c.362.597.184 1.256.184 1.882.009 42.681.009 85.362 0 128.043 0 .626.179 1.285-.184 1.881v23.51c.125.49.289.974.367 1.471 1.06 6.774 3.602 12.798 8.737 17.55 5.898 5.458 13.104 7.502 20.864 7.523 18.494.051 36.987-.166 55.481-.227 5.713-.019 11.426.158 17.139.17 12.268.029 24.536.064 36.803-.007 11.235-.065 22.475.319 33.706-.266 2.448-.127 2.543-.2 1.915-2.563-1.104-4.148-2.218-8.295-3.321-12.444-.698-2.623-1.384-5.248-2.191-8.314.766.548 1.148.771 1.472 1.061 5.07 4.539 10.133 9.085 15.196 13.632 14.091 12.653 28.181 25.308 42.276 37.958.372.334.716.898 1.263.753.636-.169.413-.86.462-1.324.114-1.083.196-2.174.198-3.262.042-30.123.101-60.245.097-90.367-.006-43.223-.058-86.448-.09-129.672zm-31.186 92.31c-3.478 12.461-6.413 25.074-9.572 37.624-4.132 16.414-18.591 28.702-35.366 30.394-6.691.674-12.992-.789-19.344-2.395-23.848-6.03-47.746-11.872-71.543-18.095C45.644 173.213 33.527 157 33.53 138.371c-.24-5.874 1.76-11.686 3.228-17.577 5.563-22.314 11.237-44.6 16.81-66.912 3.949-15.809 17.619-28.062 33.776-30.286 6.827-.94 13.372.187 19.946 1.91 12.706 3.33 25.46 6.474 38.212 9.623 1.197.295 1.905.892 2.495 1.865 16.441 27.099 32.794 54.253 49.442 81.225 2.514 4.072 3.023 7.535 1.749 12.1zm504.195-48.991c-5.194-8.851-10.371-17.71-15.619-26.528-.852-1.432-.736-1.938.962-2.423 4.361-1.249 8.142-3.539 10.739-7.359 4.109-6.044 4.219-12.76 2.888-19.614-.715-3.683-2.494-6.867-5.312-9.386-4.302-3.847-9.517-5.641-15.142-5.793-9.303-.252-18.616-.128-27.925-.147-3.184-.006-3.511.333-3.512 3.565-.007 11.428-.002 22.856-.003 34.285v10.208c.001 8.282.004 16.565.002 24.847 0 1.178-.027 2.368 1.302 2.942 3.034 1.312 5.429-.22 5.435-3.505.016-8.796.04-17.593-.019-26.388-.011-1.657.499-2.264 2.203-2.243 6.098.078 12.199.058 18.298.008 1.297-.011 2.096.382 2.776 1.549 4.976 8.532 10.018 17.025 15.055 25.521.815 1.375 1.484 2.852 2.603 4.028 1.273 1.339 4.255 1.736 5.487.689 1.738-1.48.587-2.883-.218-4.256zm-44.336-33.861c-1.475.028-1.869-.638-1.855-1.983.045-4.495.017-8.991.017-13.487s.05-8.992-.027-13.486c-.028-1.615.581-2.129 2.146-2.097 7.38.153 14.774-.32 22.141.333 5.375.477 10.236 2.11 13.026 7.254 5.69 10.492-.688 22.239-12.534 23.152-7.632.589-15.277.169-22.914.314zm342.006 35.556c-.227-.593-.584-1.139-.909-1.69-5.229-8.904-10.465-17.803-15.688-26.71-.469-.798-1.206-1.527.469-2.084 10.447-3.476 14.999-9.936 14.901-20.838-.068-7.667-2.438-14.123-9.439-18.157-3.678-2.119-7.696-3.283-11.915-3.348-9.243-.142-18.489-.101-27.734-.119-3.186-.006-3.515.335-3.518 3.56-.005 11.493-.001 22.985-.002 34.478 0 8.989-.001 17.978.001 26.966 0 2.825.019 5.65.006 8.475-.005 1.13.322 2.039 1.472 2.431 3.277 1.115 5.258-.292 5.262-3.753.011-8.732.038-17.464-.021-26.195-.011-1.65.487-2.27 2.197-2.248 6.162.079 12.328.059 18.49.008 1.266-.011 1.968.478 2.582 1.547 2.396 4.17 4.879 8.29 7.328 12.43 3.169 5.353 6.306 10.725 9.52 16.051 1.271 2.104 3.211 2.801 5.455 2.198 1.353-.366 2.051-1.665 1.543-3.002zm-45.259-35.557c-1.486.028-1.857-.659-1.844-1.994.044-4.495.017-8.991.016-13.487-.002-4.431.049-8.863-.028-13.293-.027-1.607.402-2.326 2.158-2.285 7.38.172 14.774-.313 22.141.341 5.004.445 9.641 1.858 12.521 6.441 6.519 10.366.126 23.033-12.052 23.965-7.631.585-15.275.167-22.912.312zm-27.14-16.267c-1.426-9.721-6.751-16.934-16.303-20.457-4.409-1.625-8.997-1.85-13.651-1.758-12.843.25-22.521 8.076-25.42 20.523-1.432 6.146-1.108 12.372-1.229 18.282.083 7.225-.273 14.178 1.654 20.954 2.013 7.077 5.883 12.67 12.784 15.722 6.084 2.69 12.48 3.076 19.047 2.471 12.328-1.134 20.588-8.091 22.833-20.275 2.169-11.755 2.015-23.684.285-35.462zm-6.414 30.197c-1.344 13.045-11.655 20.963-24.658 19.038-10.496-1.554-16.695-7.873-18.097-18.44-.617-4.654-.647-9.335-.697-14.711.18-4.49-.095-9.707 1.027-14.824 2.463-11.232 10.144-17.263 21.579-16.98 11.753.291 19.628 7.502 20.844 19.23.922 8.888.917 17.798.002 26.687z"/><path d="M95.447 34.743c4.795-.188 9.794 1.617 14.884 2.853 8.584 2.085 17.124 4.355 25.708 6.437 1.677.406 1.919 1.075 1.521 2.622-2.358 9.174-4.645 18.367-6.932 27.56-4.881 19.62 7.323 40.628 27.887 45.788 9.259 2.323 18.509 4.686 27.787 6.93 1.709.414 2.064 1.071 1.638 2.73-2.835 11.046-5.554 22.121-8.372 33.172-3.726 14.609-17.072 24.665-32.159 24.214-5.432-.162-10.562-1.959-15.77-3.261-20.629-5.153-41.231-10.415-61.863-15.553-17.324-4.314-28.036-21.079-23.87-38.369 5.761-23.906 11.801-47.747 17.995-71.544 3.713-14.263 16.34-23.613 31.546-23.579z"/></g><path fill="#FFF" d="M337.971 112.96h-48.292v54.256l32.146 28.945v-52.655h17.164c10.909 0 16.291 5.236 16.291 13.672v40.292c0 8.436-5.091 14.11-16.291 14.11h-49.455v30.691h48.292c25.891.145 50.182-12.801 50.182-42.474V156.45c.145-30.254-24.146-43.49-50.037-43.49zm253.095 86.838v-44.51c0-16 28.801-19.636 37.528-3.636l26.618-10.764c-10.472-22.982-29.527-29.673-45.382-29.673-25.891 0-51.492 14.982-51.492 44.073v44.51c0 29.382 25.601 44.074 50.91 44.074 16.291 0 35.783-8 46.546-28.946l-28.51-13.091c-6.981 17.89-36.218 13.526-36.218-2.037zm-88.002-38.402c-10.037-2.182-16.728-5.818-17.164-12.072.582-14.982 23.709-15.564 37.237-1.164l21.382-16.437c-13.382-16.292-28.51-20.656-44.073-20.656-23.709 0-46.692 13.382-46.692 38.692 0 24.582 18.909 37.818 39.709 41.019 10.619 1.455 22.4 5.673 22.11 12.945-.874 13.819-29.383 13.092-42.329-2.618l-20.655 19.346c12.073 15.563 28.51 23.418 43.928 23.418 23.709 0 50.037-13.673 51.055-38.692 1.457-31.562-21.525-39.562-44.508-43.781zm-97.456-48.436h32.583v129.166h-32.583zm549.392 0h-48.292v54.256l32.146 28.945v-52.655h17.163c10.91 0 16.292 5.236 16.292 13.672v40.292c0 8.436-5.092 14.11-16.292 14.11h-49.455v30.691H955c25.892.145 50.184-12.801 50.184-42.474V156.45c0-30.254-24.292-43.49-50.184-43.49zm-236.95-1.746c-26.764 0-53.383 14.546-53.383 44.364v44.073c0 29.528 26.765 44.364 53.673 44.364 26.765 0 53.383-14.836 53.383-44.364v-44.073c.001-29.673-26.908-44.364-53.673-44.364zm20.946 88.438c0 9.31-10.474 14.11-20.8 14.11-10.474 0-20.947-4.509-20.947-14.11v-44.073c0-9.454 10.182-14.545 20.364-14.545 10.618 0 21.383 4.509 21.383 14.545v44.073zm124.366-1.745c15.564-4.946 25.309-18.473 25.309-42.328-.726-30.255-21.382-42.474-48-42.474h-51.638v129.167h33.019v-41.02h5.818l29.964 41.02h40.729l-35.201-44.365zm-22.11-24.874h-19.2v-29.527h19.2c20.509 0 20.509 29.527 0 29.527z"/></svg>